<?xml version="1.0" encoding="UTF-8"?>
<svg width="1200" height="600" viewBox="0 0 1200 600" xmlns="http://www.w3.org/2000/svg">
  <!-- Background -->
  <rect width="1200" height="600" fill="#f0f0f0"/>
  
  <!-- Title -->
  <text x="600" y="50" font-family="Arial, sans-serif" font-size="28" font-weight="bold" fill="#002D5E" text-anchor="middle">Strategic Impact Snapshot</text>
  
  <!-- KPI Dashboard Section -->
  <rect x="100" y="80" width="1000" height="470" rx="10" ry="10" fill="#ffffff" stroke="#002D5E" stroke-width="2"/>
  
  <!-- Charts Row 1 -->
  <!-- EV Sales Growth -->
  <rect x="130" y="110" width="300" height="200" rx="5" ry="5" fill="#f9f9f9" stroke="#dddddd" stroke-width="1"/>
  <text x="280" y="135" font-family="Arial, sans-serif" font-size="16" font-weight="bold" fill="#002D5E" text-anchor="middle">EV Sales Growth</text>
  <!-- Bar Chart -->
  <rect x="160" y="250" width="40" height="30" fill="#89B2A6"/>
  <rect x="210" y="220" width="40" height="60" fill="#89B2A6"/>
  <rect x="260" y="180" width="40" height="100" fill="#89B2A6"/>
  <rect x="310" y="150" width="40" height="130" fill="#89B2A6"/>
  <line x1="160" y1="280" x2="350" y2="280" stroke="#333333" stroke-width="1"/>
  <text x="180" y="295" font-family="Arial, sans-serif" font-size="12" fill="#666666" text-anchor="middle">2020</text>
  <text x="230" y="295" font-family="Arial, sans-serif" font-size="12" fill="#666666" text-anchor="middle">2021</text>
  <text x="280" y="295" font-family="Arial, sans-serif" font-size="12" fill="#666666" text-anchor="middle">2022</text>
  <text x="330" y="295" font-family="Arial, sans-serif" font-size="12" fill="#666666" text-anchor="middle">2023</text>
  
  <!-- CO2 Reduction -->
  <rect x="450" y="110" width="300" height="200" rx="5" ry="5" fill="#f9f9f9" stroke="#dddddd" stroke-width="1"/>
  <text x="600" y="135" font-family="Arial, sans-serif" font-size="16" font-weight="bold" fill="#002D5E" text-anchor="middle">CO₂ Reduction</text>
  <!-- Line Chart -->
  <polyline points="480,230 530,220 580,200 630,170 680,150" stroke="#002D5E" stroke-width="3" fill="none"/>
  <circle cx="480" cy="230" r="4" fill="#002D5E"/>
  <circle cx="530" cy="220" r="4" fill="#002D5E"/>
  <circle cx="580" cy="200" r="4" fill="#002D5E"/>
  <circle cx="630" cy="170" r="4" fill="#002D5E"/>
  <circle cx="680" cy="150" r="4" fill="#002D5E"/>
  <line x1="480" y1="280" x2="680" y2="280" stroke="#333333" stroke-width="1"/>
  <text x="480" y="295" font-family="Arial, sans-serif" font-size="12" fill="#666666" text-anchor="middle">2019</text>
  <text x="530" y="295" font-family="Arial, sans-serif" font-size="12" fill="#666666" text-anchor="middle">2020</text>
  <text x="580" y="295" font-family="Arial, sans-serif" font-size="12" fill="#666666" text-anchor="middle">2021</text>
  <text x="630" y="295" font-family="Arial, sans-serif" font-size="12" fill="#666666" text-anchor="middle">2022</text>
  <text x="680" y="295" font-family="Arial, sans-serif" font-size="12" fill="#666666" text-anchor="middle">2023</text>
  
  <!-- Customer Satisfaction -->
  <rect x="770" y="110" width="300" height="200" rx="5" ry="5" fill="#f9f9f9" stroke="#dddddd" stroke-width="1"/>
  <text x="920" y="135" font-family="Arial, sans-serif" font-size="16" font-weight="bold" fill="#002D5E" text-anchor="middle">Customer Satisfaction</text>
  <!-- Gauge Chart -->
  <path d="M 920,220 A 70,70 0 1,1 920,219.9" fill="none" stroke="#dddddd" stroke-width="20"/>
  <path d="M 920,220 A 70,70 0 0,1 960,155" fill="none" stroke="#89B2A6" stroke-width="20"/>
  <circle cx="920" cy="220" r="50" fill="#ffffff" stroke="#dddddd" stroke-width="2"/>
  <text x="920" y="225" font-family="Arial, sans-serif" font-size="24" font-weight="bold" fill="#002D5E" text-anchor="middle">92%</text>
  
  <!-- Charts Row 2 -->
  <!-- Charging Network Growth -->
  <rect x="130" y="330" width="300" height="200" rx="5" ry="5" fill="#f9f9f9" stroke="#dddddd" stroke-width="1"/>
  <text x="280" y="355" font-family="Arial, sans-serif" font-size="16" font-weight="bold" fill="#002D5E" text-anchor="middle">Charging Network Growth</text>
  <!-- Area Chart -->
  <polygon points="160,480 160,430 210,410 260,380 310,350 360,330 360,480" fill="#89B2A6" fill-opacity="0.6"/>
  <polyline points="160,430 210,410 260,380 310,350 360,330" stroke="#002D5E" stroke-width="2" fill="none"/>
  <line x1="160" y1="480" x2="360" y2="480" stroke="#333333" stroke-width="1"/>
  <text x="160" y="495" font-family="Arial, sans-serif" font-size="12" fill="#666666" text-anchor="middle">2018</text>
  <text x="210" y="495" font-family="Arial, sans-serif" font-size="12" fill="#666666" text-anchor="middle">2019</text>
  <text x="260" y="495" font-family="Arial, sans-serif" font-size="12" fill="#666666" text-anchor="middle">2020</text>
  <text x="310" y="495" font-family="Arial, sans-serif" font-size="12" fill="#666666" text-anchor="middle">2021</text>
  <text x="360" y="495" font-family="Arial, sans-serif" font-size="12" fill="#666666" text-anchor="middle">2022</text>
  
  <!-- Dealership Transformation -->
  <rect x="450" y="330" width="300" height="200" rx="5" ry="5" fill="#f9f9f9" stroke="#dddddd" stroke-width="1"/>
  <text x="600" y="355" font-family="Arial, sans-serif" font-size="16" font-weight="bold" fill="#002D5E" text-anchor="middle">Dealership Transformation</text>
  <!-- Progress Bars -->
  <text x="480" y="385" font-family="Arial, sans-serif" font-size="12" fill="#666666">EV Training</text>
  <rect x="480" y="395" width="240" height="15" rx="7.5" ry="7.5" fill="#eeeeee"/>
  <rect x="480" y="395" width="216" height="15" rx="7.5" ry="7.5" fill="#89B2A6"/>
  <text x="730" y="408" font-family="Arial, sans-serif" font-size="12" fill="#666666" text-anchor="end">90%</text>
  
  <text x="480" y="435" font-family="Arial, sans-serif" font-size="12" fill="#666666">Charging Infrastructure</text>
  <rect x="480" y="445" width="240" height="15" rx="7.5" ry="7.5" fill="#eeeeee"/>
  <rect x="480" y="445" width="192" height="15" rx="7.5" ry="7.5" fill="#89B2A6"/>
  <text x="730" y="458" font-family="Arial, sans-serif" font-size="12" fill="#666666" text-anchor="end">80%</text>
  
  <text x="480" y="485" font-family="Arial, sans-serif" font-size="12" fill="#666666">Digital Experience</text>
  <rect x="480" y="495" width="240" height="15" rx="7.5" ry="7.5" fill="#eeeeee"/>
  <rect x="480" y="495" width="204" height="15" rx="7.5" ry="7.5" fill="#89B2A6"/>
  <text x="730" y="508" font-family="Arial, sans-serif" font-size="12" fill="#666666" text-anchor="end">85%</text>
  
  <!-- ROI Metrics -->
  <rect x="770" y="330" width="300" height="200" rx="5" ry="5" fill="#f9f9f9" stroke="#dddddd" stroke-width="1"/>
  <text x="920" y="355" font-family="Arial, sans-serif" font-size="16" font-weight="bold" fill="#002D5E" text-anchor="middle">ROI Metrics</text>
  <!-- Donut Chart -->
  <circle cx="920" cy="430" r="70" fill="#ffffff"/>
  <path d="M 920,430 L 920,360 A 70,70 0 0,1 976,449 Z" fill="#002D5E"/>
  <path d="M 920,430 L 976,449 A 70,70 0 0,1 896,499 Z" fill="#89B2A6"/>
  <path d="M 920,430 L 896,499 A 70,70 0 0,1 850,417 Z" fill="#4F758B"/>
  <path d="M 920,430 L 850,417 A 70,70 0 0,1 920,360 Z" fill="#D1D1D1"/>
  <circle cx="920" cy="430" r="35" fill="#ffffff"/>
  
  <!-- Legend -->
  <rect x="870" y="510" width="12" height="12" fill="#002D5E"/>
  <text x="890" y="520" font-family="Arial, sans-serif" font-size="12" fill="#666666">Sales</text>
  <rect x="930" y="510" width="12" height="12" fill="#89B2A6"/>
  <text x="950" y="520" font-family="Arial, sans-serif" font-size="12" fill="#666666">Service</text>
  
  <!-- Mercedes Logo -->
  <circle cx="70" cy="40" r="25" fill="#ffffff" stroke="#002D5E" stroke-width="2"/>
  <path d="M 55 40 L 85 40 L 70 25 Z" fill="#002D5E"/>
  <path d="M 55 40 L 70 70 L 85 40 Z" fill="#002D5E"/>
  
  <!-- Footer -->
  <text x="600" y="575" font-family="Arial, sans-serif" font-size="14" fill="#666666" text-anchor="middle">Note: This is a placeholder image. Replace with actual strategic impact data visualization.</text>
</svg>
