<?xml version="1.0" encoding="UTF-8"?>
<svg width="1200" height="800" viewBox="0 0 1200 800" xmlns="http://www.w3.org/2000/svg">
  <!-- Background -->
  <rect width="1200" height="800" fill="#f0f0f0"/>
  
  <!-- UI Frame -->
  <rect x="100" y="100" width="1000" height="600" rx="10" ry="10" fill="#ffffff" stroke="#002D5E" stroke-width="3"/>
  
  <!-- Header -->
  <rect x="100" y="100" width="1000" height="80" rx="10" ry="10" fill="#002D5E"/>
  <text x="150" y="150" font-family="Arial, sans-serif" font-size="24" font-weight="bold" fill="#ffffff">MBUSA Customer Experience Innovation</text>
  
  <!-- Mercedes Logo -->
  <circle cx="980" cy="140" r="30" fill="#ffffff"/>
  <path d="M 965 140 L 995 140 L 980 125 Z" fill="#002D5E"/>
  <path d="M 965 140 L 980 170 L 995 140 Z" fill="#002D5E"/>
  
  <!-- Navigation Menu -->
  <rect x="130" y="200" width="200" height="460" rx="5" ry="5" fill="#f5f5f5" stroke="#dddddd" stroke-width="1"/>
  <text x="150" y="230" font-family="Arial, sans-serif" font-size="16" font-weight="bold" fill="#002D5E">Dashboard</text>
  <text x="150" y="270" font-family="Arial, sans-serif" font-size="16" font-weight="bold" fill="#002D5E">Vehicle Status</text>
  <text x="150" y="310" font-family="Arial, sans-serif" font-size="16" font-weight="bold" fill="#002D5E">Charging Management</text>
  <text x="150" y="350" font-family="Arial, sans-serif" font-size="16" font-weight="bold" fill="#002D5E">Trip Planning</text>
  <text x="150" y="390" font-family="Arial, sans-serif" font-size="16" font-weight="bold" fill="#002D5E">Service History</text>
  <text x="150" y="430" font-family="Arial, sans-serif" font-size="16" font-weight="bold" fill="#002D5E">Personalization</text>
  <text x="150" y="470" font-family="Arial, sans-serif" font-size="16" font-weight="bold" fill="#002D5E">Connected Home</text>
  <text x="150" y="510" font-family="Arial, sans-serif" font-size="16" font-weight="bold" fill="#89B2A6">EV Support</text>
  
  <!-- Main Content Area -->
  <rect x="360" y="200" width="700" height="460" rx="5" ry="5" fill="#ffffff" stroke="#dddddd" stroke-width="1"/>
  
  <!-- Battery Status Widget -->
  <rect x="380" y="220" width="300" height="160" rx="5" ry="5" fill="#f9f9f9" stroke="#dddddd" stroke-width="1"/>
  <text x="400" y="250" font-family="Arial, sans-serif" font-size="18" font-weight="bold" fill="#002D5E">Battery Status</text>
  <!-- Battery Indicator -->
  <rect x="400" y="270" width="260" height="40" rx="20" ry="20" fill="#eeeeee" stroke="#dddddd" stroke-width="1"/>
  <rect x="400" y="270" width="180" height="40" rx="20" ry="20" fill="#89B2A6"/>
  <text x="530" y="295" font-family="Arial, sans-serif" font-size="16" font-weight="bold" fill="#ffffff" text-anchor="middle">70%</text>
  <text x="400" y="330" font-family="Arial, sans-serif" font-size="14" fill="#666666">Estimated Range: 230 miles</text>
  
  <!-- Charging Stations Map -->
  <rect x="700" y="220" width="340" height="160" rx="5" ry="5" fill="#f9f9f9" stroke="#dddddd" stroke-width="1"/>
  <text x="720" y="250" font-family="Arial, sans-serif" font-size="18" font-weight="bold" fill="#002D5E">Nearby Charging Stations</text>
  <!-- Map Placeholder -->
  <rect x="720" y="270" width="300" height="90" fill="#dddddd"/>
  <circle cx="780" cy="300" r="8" fill="#89B2A6"/>
  <circle cx="850" cy="330" r="8" fill="#002D5E"/>
  <circle cx="930" cy="290" r="8" fill="#002D5E"/>
  
  <!-- Smart Home Integration -->
  <rect x="380" y="400" width="300" height="160" rx="5" ry="5" fill="#f9f9f9" stroke="#dddddd" stroke-width="1"/>
  <text x="400" y="430" font-family="Arial, sans-serif" font-size="18" font-weight="bold" fill="#002D5E">Smart Home Integration</text>
  <!-- Home Device Icons -->
  <circle cx="430" cy="480" r="25" fill="#dddddd"/>
  <circle cx="510" cy="480" r="25" fill="#dddddd"/>
  <circle cx="590" cy="480" r="25" fill="#dddddd"/>
  <text x="430" y="520" font-family="Arial, sans-serif" font-size="12" fill="#666666" text-anchor="middle">Thermostat</text>
  <text x="510" y="520" font-family="Arial, sans-serif" font-size="12" fill="#666666" text-anchor="middle">Lights</text>
  <text x="590" y="520" font-family="Arial, sans-serif" font-size="12" fill="#666666" text-anchor="middle">Garage</text>
  
  <!-- Service Schedule -->
  <rect x="700" y="400" width="340" height="160" rx="5" ry="5" fill="#f9f9f9" stroke="#dddddd" stroke-width="1"/>
  <text x="720" y="430" font-family="Arial, sans-serif" font-size="18" font-weight="bold" fill="#002D5E">Service Schedule</text>
  <!-- Schedule Table -->
  <line x1="720" y1="450" x2="1020" y2="450" stroke="#dddddd" stroke-width="1"/>
  <text x="730" y="470" font-family="Arial, sans-serif" font-size="14" fill="#666666">Next Service: Battery Check</text>
  <text x="950" y="470" font-family="Arial, sans-serif" font-size="14" fill="#666666" text-anchor="end">07/15/2023</text>
  <line x1="720" y1="480" x2="1020" y2="480" stroke="#dddddd" stroke-width="1"/>
  <text x="730" y="500" font-family="Arial, sans-serif" font-size="14" fill="#666666">Tire Rotation</text>
  <text x="950" y="500" font-family="Arial, sans-serif" font-size="14" fill="#666666" text-anchor="end">09/22/2023</text>
  <line x1="720" y1="510" x2="1020" y2="510" stroke="#dddddd" stroke-width="1"/>
  <text x="730" y="530" font-family="Arial, sans-serif" font-size="14" fill="#666666">Software Update</text>
  <text x="950" y="530" font-family="Arial, sans-serif" font-size="14" fill="#666666" text-anchor="end">Available Now</text>
  
  <!-- Footer -->
  <rect x="100" y="700" width="1000" height="50" fill="#f5f5f5"/>
  <text x="150" y="730" font-family="Arial, sans-serif" font-size="12" fill="#666666">© 2023 Mercedes-Benz USA</text>
  <text x="950" y="730" font-family="Arial, sans-serif" font-size="12" fill="#666666" text-anchor="end">Customer Experience Innovation Platform v1.0</text>
  
  <!-- Placeholder Text -->
  <text x="600" y="775" font-family="Arial, sans-serif" font-size="14" fill="#666666" text-anchor="middle">Note: This is a placeholder image. Replace with actual customer experience UI design.</text>
</svg>
