<?xml version="1.0" encoding="UTF-8"?>
<svg width="1600" height="900" viewBox="0 0 1600 900" xmlns="http://www.w3.org/2000/svg">
  <!-- Background -->
  <rect width="1600" height="900" fill="#f0f0f0"/>
  
  <!-- Title Area -->
  <rect x="50" y="50" width="1500" height="100" rx="5" ry="5" fill="#002D5E"/>
  <text x="100" y="110" font-family="Arial, sans-serif" font-size="40" font-weight="bold" fill="#ffffff">Driving Excellence: Strategic Blueprint for Mercedes-Benz USA's Electrified Future</text>
  
  <!-- Mercedes Logo -->
  <circle cx="1450" cy="100" r="40" fill="#ffffff"/>
  <path d="M 1430 100 L 1470 100 L 1450 80 Z" fill="#002D5E"/>
  <path d="M 1430 100 L 1450 140 L 1470 100 Z" fill="#002D5E"/>
  
  <!-- Main Content Sections -->
  <rect x="50" y="180" width="740" height="340" rx="5" ry="5" fill="#ffffff" stroke="#002D5E" stroke-width="2"/>
  <rect x="810" y="180" width="740" height="340" rx="5" ry="5" fill="#ffffff" stroke="#002D5E" stroke-width="2"/>
  <rect x="50" y="540" width="740" height="340" rx="5" ry="5" fill="#ffffff" stroke="#002D5E" stroke-width="2"/>
  <rect x="810" y="540" width="740" height="340" rx="5" ry="5" fill="#ffffff" stroke="#002D5E" stroke-width="2"/>
  
  <!-- Section 1: Strategic Blueprint -->
  <text x="70" y="210" font-family="Arial, sans-serif" font-size="24" font-weight="bold" fill="#002D5E">Strategic Blueprint</text>
  
  <!-- Strategic Blueprint Visualization (mini version of the hero banner) -->
  <rect x="80" y="230" width="680" height="270" rx="5" ry="5" fill="#f5f5f5"/>
  
  <!-- Strategy Roadmap -->
  <path d="M 100,360 L 720,360" stroke="#002D5E" stroke-width="3" stroke-dasharray="10"/>
  
  <!-- Strategy Elements -->
  <circle cx="180" cy="360" r="30" fill="#89B2A6"/>
  <text x="180" y="365" font-family="Arial, sans-serif" font-size="12" font-weight="bold" fill="#ffffff" text-anchor="middle">2023</text>
  <text x="180" y="310" font-family="Arial, sans-serif" font-size="14" font-weight="bold" fill="#002D5E" text-anchor="middle">Launch</text>
  
  <circle cx="320" cy="360" r="30" fill="#89B2A6"/>
  <text x="320" y="365" font-family="Arial, sans-serif" font-size="12" font-weight="bold" fill="#ffffff" text-anchor="middle">2025</text>
  <text x="320" y="310" font-family="Arial, sans-serif" font-size="14" font-weight="bold" fill="#002D5E" text-anchor="middle">Scale</text>
  
  <circle cx="460" cy="360" r="30" fill="#89B2A6"/>
  <text x="460" y="365" font-family="Arial, sans-serif" font-size="12" font-weight="bold" fill="#ffffff" text-anchor="middle">2030</text>
  <text x="460" y="310" font-family="Arial, sans-serif" font-size="14" font-weight="bold" fill="#002D5E" text-anchor="middle">Optimize</text>
  
  <circle cx="600" cy="360" r="30" fill="#89B2A6"/>
  <text x="600" y="365" font-family="Arial, sans-serif" font-size="12" font-weight="bold" fill="#ffffff" text-anchor="middle">2039</text>
  <text x="600" y="310" font-family="Arial, sans-serif" font-size="14" font-weight="bold" fill="#002D5E" text-anchor="middle">Transform</text>
  
  <!-- Section 2: EV Ecosystem -->
  <text x="830" y="210" font-family="Arial, sans-serif" font-size="24" font-weight="bold" fill="#002D5E">EV Ecosystem</text>
  
  <!-- EV Ecosystem Visualization (mini version) -->
  <rect x="840" y="230" width="680" height="270" rx="5" ry="5" fill="#f5f5f5"/>
  
  <!-- EV Charging Station -->
  <rect x="900" y="330" width="80" height="120" rx="5" ry="5" fill="#002D5E"/>
  <rect x="920" y="290" width="40" height="40" fill="#89B2A6"/>
  
  <!-- Energy Grid -->
  <polygon points="1050,290 1100,340 1050,390 1000,340" fill="#89B2A6" fill-opacity="0.6" stroke="#002D5E" stroke-width="2"/>
  <polygon points="1100,290 1150,340 1100,390 1050,340" fill="#89B2A6" fill-opacity="0.6" stroke="#002D5E" stroke-width="2"/>
  <polygon points="1150,290 1200,340 1150,390 1100,340" fill="#89B2A6" fill-opacity="0.6" stroke="#002D5E" stroke-width="2"/>
  
  <!-- EV Car -->
  <rect x="1300" y="330" width="100" height="50" rx="15" ry="15" fill="#002D5E"/>
  <circle cx="1320" cy="380" r="15" fill="#333333"/>
  <circle cx="1380" cy="380" r="15" fill="#333333"/>
  <rect x="1310" y="300" width="80" height="40" rx="10" ry="10" fill="#002D5E"/>
  
  <!-- Section 3: Sustainability Framework -->
  <text x="70" y="570" font-family="Arial, sans-serif" font-size="24" font-weight="bold" fill="#002D5E">Sustainability Framework</text>
  
  <!-- Sustainability Framework Visualization (mini version) -->
  <rect x="80" y="590" width="680" height="270" rx="5" ry="5" fill="#f5f5f5"/>
  
  <!-- Circular Framework -->
  <circle cx="420" cy="720" r="120" fill="#ffffff" stroke="#002D5E" stroke-width="2"/>
  
  <!-- Central Element -->
  <circle cx="420" cy="720" r="30" fill="#89B2A6"/>
  <text x="420" y="725" font-family="Arial, sans-serif" font-size="12" font-weight="bold" fill="#ffffff" text-anchor="middle">2039</text>
  
  <!-- Framework Elements -->
  <circle cx="420" cy="600" r="20" fill="#ffffff" stroke="#002D5E" stroke-width="2"/>
  <circle cx="300" cy="660" r="20" fill="#ffffff" stroke="#002D5E" stroke-width="2"/>
  <circle cx="300" cy="780" r="20" fill="#ffffff" stroke="#002D5E" stroke-width="2"/>
  <circle cx="420" cy="840" r="20" fill="#ffffff" stroke="#002D5E" stroke-width="2"/>
  <circle cx="540" cy="780" r="20" fill="#ffffff" stroke="#002D5E" stroke-width="2"/>
  <circle cx="540" cy="660" r="20" fill="#ffffff" stroke="#002D5E" stroke-width="2"/>
  
  <!-- Connection Lines -->
  <line x1="420" y1="620" x2="420" y2="690" stroke="#002D5E" stroke-width="1" stroke-dasharray="5"/>
  <line x1="320" y1="660" x2="390" y2="690" stroke="#002D5E" stroke-width="1" stroke-dasharray="5"/>
  <line x1="320" y1="780" x2="390" y2="750" stroke="#002D5E" stroke-width="1" stroke-dasharray="5"/>
  <line x1="420" y1="820" x2="420" y2="750" stroke="#002D5E" stroke-width="1" stroke-dasharray="5"/>
  <line x1="520" y1="780" x2="450" y2="750" stroke="#002D5E" stroke-width="1" stroke-dasharray="5"/>
  <line x1="520" y1="660" x2="450" y2="690" stroke="#002D5E" stroke-width="1" stroke-dasharray="5"/>
  
  <!-- Section 4: Customer Experience -->
  <text x="830" y="570" font-family="Arial, sans-serif" font-size="24" font-weight="bold" fill="#002D5E">Customer Experience Innovation</text>
  
  <!-- Customer Experience Visualization (mini version) -->
  <rect x="840" y="590" width="680" height="270" rx="5" ry="5" fill="#f5f5f5"/>
  
  <!-- Mobile App UI -->
  <rect x="880" y="610" width="150" height="230" rx="10" ry="10" fill="#ffffff" stroke="#002D5E" stroke-width="2"/>
  <rect x="880" y="610" width="150" height="40" rx="10" ry="10" fill="#002D5E"/>
  <circle cx="955" cy="730" r="30" fill="#89B2A6"/>
  <rect x="905" y="780" width="100" height="15" rx="7.5" ry="7.5" fill="#eeeeee"/>
  <rect x="905" y="805" width="100" height="15" rx="7.5" ry="7.5" fill="#eeeeee"/>
  
  <!-- Car Touchscreen UI -->
  <rect x="1060" y="630" width="220" height="140" rx="5" ry="5" fill="#ffffff" stroke="#002D5E" stroke-width="2"/>
  <rect x="1060" y="630" width="220" height="30" fill="#002D5E"/>
  <rect x="1080" y="670" width="80" height="80" fill="#f5f5f5"/>
  <rect x="1180" y="670" width="80" height="30" fill="#f5f5f5"/>
  <rect x="1180" y="720" width="80" height="30" fill="#f5f5f5"/>
  
  <!-- Home Automation -->
  <rect x="1310" y="610" width="180" height="230" rx="10" ry="10" fill="#ffffff" stroke="#002D5E" stroke-width="2"/>
  <path d="M 1400,650 L 1350,700 L 1450,700 Z" fill="#002D5E"/>
  <rect x="1380" y="700" width="40" height="70" fill="#002D5E"/>
  <circle cx="1340" cy="750" r="20" fill="#89B2A6"/>
  <circle cx="1400" cy="750" r="20" fill="#89B2A6"/>
  <circle cx="1460" cy="750" r="20" fill="#89B2A6"/>
  
  <!-- Strategic Impact Data -->
  <text x="1430" y="880" font-family="Arial, sans-serif" font-size="12" fill="#666666" text-anchor="end">Full Strategy Blueprint | 2023-2039</text>
  
  <!-- Placeholder Text -->
  <text x="800" y="880" font-family="Arial, sans-serif" font-size="14" fill="#666666" text-anchor="middle">Note: This is a placeholder image. Replace with actual strategy composition visualization.</text>
</svg>
