<?xml version="1.0" encoding="UTF-8"?>
<svg width="1200" height="600" viewBox="0 0 1200 600" xmlns="http://www.w3.org/2000/svg">
  <!-- Background -->
  <rect width="1200" height="600" fill="#f0f0f0"/>
  
  <!-- Strategic Blueprint Visualization -->
  <rect x="200" y="100" width="800" height="400" rx="8" fill="#ffffff" stroke="#002D5E" stroke-width="2"/>
  
  <!-- Decorative Elements -->
  <rect x="240" y="140" width="720" height="80" rx="4" fill="#002D5E"/>
  <text x="600" y="190" font-family="Arial, sans-serif" font-size="32" font-weight="bold" fill="#ffffff" text-anchor="middle">DRIVING EXCELLENCE</text>
  
  <!-- Mercedes Logo -->
  <circle cx="600" cy="300" r="80" fill="#ffffff"/>
  <circle cx="600" cy="300" r="75" fill="none" stroke="#002D5E" stroke-width="2"/>
  <path d="M 600 220 L 600 380 M 520 300 L 680 300 M 535 250 L 665 350 M 535 350 L 665 250" stroke="#002D5E" stroke-width="4"/>
  
  <!-- Strategy Elements -->
  <rect x="240" y="400" width="220" height="60" rx="4" fill="#002D5E" opacity="0.8"/>
  <text x="350" y="440" font-family="Arial, sans-serif" font-size="20" fill="#ffffff" text-anchor="middle">Electrification</text>
  
  <rect x="490" y="400" width="220" height="60" rx="4" fill="#002D5E" opacity="0.8"/>
  <text x="600" y="440" font-family="Arial, sans-serif" font-size="20" fill="#ffffff" text-anchor="middle">Sustainability</text>
  
  <rect x="740" y="400" width="220" height="60" rx="4" fill="#002D5E" opacity="0.8"/>
  <text x="850" y="440" font-family="Arial, sans-serif" font-size="20" fill="#ffffff" text-anchor="middle">Innovation</text>
  
  <!-- Placeholder Text -->
  <text x="600" y="520" font-family="Arial, sans-serif" font-size="18" fill="#666666" text-anchor="middle">Strategic Blueprint for Mercedes-Benz USA's Electrified Future</text>
  <text x="600" y="550" font-family="Arial, sans-serif" font-size="14" fill="#666666" text-anchor="middle">Note: This is a placeholder image. Replace with actual strategic blueprint visualization.</text>
</svg>
