<?xml version="1.0" encoding="UTF-8" standalone="no"?>
<svg width="1920" height="1080" viewBox="0 0 1920 1080" xmlns="http://www.w3.org/2000/svg">
  <rect width="100%" height="100%" fill="#F8F9FA"/>
  
  <!-- Abstract data visualization elements -->
  <!-- Horizontal lines -->
  <line x1="0" y1="180" x2="1920" y2="180" stroke="#0055FF" stroke-width="1" opacity="0.07" />
  <line x1="0" y1="360" x2="1920" y2="360" stroke="#0055FF" stroke-width="1" opacity="0.07" />
  <line x1="0" y1="540" x2="1920" y2="540" stroke="#0055FF" stroke-width="1" opacity="0.07" />
  <line x1="0" y1="720" x2="1920" y2="720" stroke="#0055FF" stroke-width="1" opacity="0.07" />
  <line x1="0" y1="900" x2="1920" y2="900" stroke="#0055FF" stroke-width="1" opacity="0.07" />
  
  <!-- Vertical lines -->
  <line x1="240" y1="0" x2="240" y2="1080" stroke="#0055FF" stroke-width="1" opacity="0.07" />
  <line x1="480" y1="0" x2="480" y2="1080" stroke="#0055FF" stroke-width="1" opacity="0.07" />
  <line x1="720" y1="0" x2="720" y2="1080" stroke="#0055FF" stroke-width="1" opacity="0.07" />
  <line x1="960" y1="0" x2="960" y2="1080" stroke="#0055FF" stroke-width="1" opacity="0.07" />
  <line x1="1200" y1="0" x2="1200" y2="1080" stroke="#0055FF" stroke-width="1" opacity="0.07" />
  <line x1="1440" y1="0" x2="1440" y2="1080" stroke="#0055FF" stroke-width="1" opacity="0.07" />
  <line x1="1680" y1="0" x2="1680" y2="1080" stroke="#0055FF" stroke-width="1" opacity="0.07" />
  
  <!-- Flow chart lines -->
  <path d="M240,360 C480,240 720,480 960,360 C1200,240 1440,480 1680,360" stroke="#0055FF" stroke-width="3" opacity="0.1" fill="none"/>
  <path d="M240,540 C480,660 720,420 960,540 C1200,660 1440,420 1680,540" stroke="#FF5500" stroke-width="3" opacity="0.1" fill="none"/>
  
  <!-- Bar chart -->
  <rect x="240" y="720" width="80" height="180" fill="#0055FF" opacity="0.07" rx="5"/>
  <rect x="480" y="680" width="80" height="220" fill="#0055FF" opacity="0.07" rx="5"/>
  <rect x="720" y="640" width="80" height="260" fill="#0055FF" opacity="0.07" rx="5"/>
  <rect x="960" y="600" width="80" height="300" fill="#0055FF" opacity="0.09" rx="5"/>
  <rect x="1200" y="560" width="80" height="340" fill="#0055FF" opacity="0.07" rx="5"/>
  <rect x="1440" y="520" width="80" height="380" fill="#0055FF" opacity="0.07" rx="5"/>
  <rect x="1680" y="480" width="80" height="420" fill="#0055FF" opacity="0.07" rx="5"/>
  
  <!-- Data points -->
  <circle cx="240" cy="360" r="8" fill="#0055FF" opacity="0.2"/>
  <circle cx="480" cy="240" r="8" fill="#0055FF" opacity="0.2"/>
  <circle cx="720" cy="480" r="8" fill="#0055FF" opacity="0.2"/>
  <circle cx="960" cy="360" r="8" fill="#0055FF" opacity="0.2"/>
  <circle cx="1200" cy="240" r="8" fill="#0055FF" opacity="0.2"/>
  <circle cx="1440" cy="480" r="8" fill="#0055FF" opacity="0.2"/>
  <circle cx="1680" cy="360" r="8" fill="#0055FF" opacity="0.2"/>
  
  <circle cx="240" cy="540" r="8" fill="#FF5500" opacity="0.2"/>
  <circle cx="480" cy="660" r="8" fill="#FF5500" opacity="0.2"/>
  <circle cx="720" cy="420" r="8" fill="#FF5500" opacity="0.2"/>
  <circle cx="960" cy="540" r="8" fill="#FF5500" opacity="0.2"/>
  <circle cx="1200" cy="660" r="8" fill="#FF5500" opacity="0.2"/>
  <circle cx="1440" cy="420" r="8" fill="#FF5500" opacity="0.2"/>
  <circle cx="1680" cy="540" r="8" fill="#FF5500" opacity="0.2"/>
  
  <!-- Connections between nodes -->
  <line x1="240" y1="360" x2="480" y2="240" stroke="#0055FF" stroke-width="1" opacity="0.1"/>
  <line x1="480" y1="240" x2="720" y2="480" stroke="#0055FF" stroke-width="1" opacity="0.1"/>
  <line x1="720" y1="480" x2="960" y2="360" stroke="#0055FF" stroke-width="1" opacity="0.1"/>
  <line x1="960" y1="360" x2="1200" y2="240" stroke="#0055FF" stroke-width="1" opacity="0.1"/>
  <line x1="1200" y1="240" x2="1440" y2="480" stroke="#0055FF" stroke-width="1" opacity="0.1"/>
  <line x1="1440" y1="480" x2="1680" y2="360" stroke="#0055FF" stroke-width="1" opacity="0.1"/>
  
  <line x1="240" y1="540" x2="480" y2="660" stroke="#FF5500" stroke-width="1" opacity="0.1"/>
  <line x1="480" y1="660" x2="720" y2="420" stroke="#FF5500" stroke-width="1" opacity="0.1"/>
  <line x1="720" y1="420" x2="960" y2="540" stroke="#FF5500" stroke-width="1" opacity="0.1"/>
  <line x1="960" y1="540" x2="1200" y2="660" stroke="#FF5500" stroke-width="1" opacity="0.1"/>
  <line x1="1200" y1="660" x2="1440" y2="420" stroke="#FF5500" stroke-width="1" opacity="0.1"/>
  <line x1="1440" y1="420" x2="1680" y2="540" stroke="#FF5500" stroke-width="1" opacity="0.1"/>
  
  <!-- Larger network nodes in background -->
  <circle cx="120" cy="120" r="40" fill="#0055FF" opacity="0.03"/>
  <circle cx="1800" cy="180" r="60" fill="#0055FF" opacity="0.03"/>
  <circle cx="600" cy="900" r="80" fill="#FF5500" opacity="0.03"/>
  <circle cx="1500" cy="800" r="70" fill="#FF5500" opacity="0.03"/>
  <circle cx="900" cy="200" r="90" fill="#00CCFF" opacity="0.03"/>
  
  <!-- Connecting lines for large nodes -->
  <line x1="120" y1="120" x2="900" y2="200" stroke="#0055FF" stroke-width="2" opacity="0.03"/>
  <line x1="900" y1="200" x2="1800" y2="180" stroke="#00CCFF" stroke-width="2" opacity="0.03"/>
  <line x1="600" y1="900" x2="1500" y2="800" stroke="#FF5500" stroke-width="2" opacity="0.03"/>
  <line x1="900" y1="200" x2="600" y2="900" stroke="#0055FF" stroke-width="2" opacity="0.03"/>
  <line x1="1800" y1="180" x2="1500" y2="800" stroke="#00CCFF" stroke-width="2" opacity="0.03"/>
</svg>
