<!-- 
This is a placeholder SVG image for the Launch Operations dashboard visualization.
It should be replaced with an actual high-quality image showing real-time metrics, resource allocation, and progress tracking.
Recommended dimensions: 1200px x 675px with 16:9 aspect ratio.
-->
<svg width="1200" height="675" xmlns="http://www.w3.org/2000/svg">
  <rect width="100%" height="100%" fill="#F8F9FA"/>
  
  <!-- Dashboard background -->
  <rect x="50" y="50" width="1100" height="575" rx="10" fill="#FFFFFF" stroke="#DDE6F0" stroke-width="2"/>
  
  <!-- Header bar -->
  <rect x="50" y="50" width="1100" height="60" rx="10" fill="#0055FF"/>
  <text x="100" y="85" font-family="Arial" font-size="18" fill="#FFFFFF">Launch Operations Dashboard</text>
  <text x="1080" y="85" font-family="Arial" font-size="16" fill="#FFFFFF" text-anchor="end">August 2025</text>
  
  <!-- Left sidebar navigation -->
  <rect x="50" y="110" width="200" height="515" fill="#F5FAFF"/>
  <text x="70" y="145" font-family="Arial" font-size="16" fill="#555555">Navigation</text>
  <rect x="60" y="160" width="180" height="40" rx="5" fill="#0055FF" opacity="0.1"/>
  <text x="80" y="185" font-family="Arial" font-size="14" fill="#0055FF">Dashboard</text>
  <text x="80" y="225" font-family="Arial" font-size="14" fill="#777777">Projects</text>
  <text x="80" y="265" font-family="Arial" font-size="14" fill="#777777">Resources</text>
  <text x="80" y="305" font-family="Arial" font-size="14" fill="#777777">Timeline</text>
  <text x="80" y="345" font-family="Arial" font-size="14" fill="#777777">Analytics</text>
  <text x="80" y="385" font-family="Arial" font-size="14" fill="#777777">Reports</text>
  
  <!-- Main content area -->
  <!-- Top stats -->
  <rect x="270" y="130" width="200" height="100" rx="8" fill="#FFFFFF" stroke="#DDE6F0" stroke-width="1"/>
  <text x="290" y="160" font-family="Arial" font-size="12" fill="#777777">Current Projects</text>
  <text x="290" y="195" font-family="Arial" font-size="28" fill="#0055FF" font-weight="bold">18</text>
  
  <rect x="490" y="130" width="200" height="100" rx="8" fill="#FFFFFF" stroke="#DDE6F0" stroke-width="1"/>
  <text x="510" y="160" font-family="Arial" font-size="12" fill="#777777">Tasks Completed</text>
  <text x="510" y="195" font-family="Arial" font-size="28" fill="#0055FF" font-weight="bold">483</text>
  
  <rect x="710" y="130" width="200" height="100" rx="8" fill="#FFFFFF" stroke="#DDE6F0" stroke-width="1"/>
  <text x="730" y="160" font-family="Arial" font-size="12" fill="#777777">Resources Utilized</text>
  <text x="730" y="195" font-family="Arial" font-size="28" fill="#0055FF" font-weight="bold">74%</text>
  
  <rect x="930" y="130" width="200" height="100" rx="8" fill="#FFFFFF" stroke="#DDE6F0" stroke-width="1"/>
  <text x="950" y="160" font-family="Arial" font-size="12" fill="#777777">Avg. Time Saved</text>
  <text x="950" y="195" font-family="Arial" font-size="28" fill="#0055FF" font-weight="bold">47%</text>
  
  <!-- Chart area -->
  <rect x="270" y="250" width="420" height="240" rx="8" fill="#FFFFFF" stroke="#DDE6F0" stroke-width="1"/>
  <text x="290" y="280" font-family="Arial" font-size="16" fill="#555555">Launch Timeline Progress</text>
  
  <!-- Simplified timeline chart -->
  <line x1="290" y1="400" x2="670" y2="400" stroke="#DDE6F0" stroke-width="1"/>
  <path d="M290,400 C330,350 370,380 410,320 C450,280 490,360 530,340 C570,330 610,290 650,270" stroke="#0055FF" stroke-width="3" fill="none"/>
  <path d="M290,400 C330,350 370,380 410,320 C450,280 490,360 530,340 C570,330 610,290 650,270" stroke="#0055FF" stroke-width="16" fill="none" opacity="0.1"/>
  
  <!-- Resource allocation pie chart -->
  <rect x="710" y="250" width="420" height="240" rx="8" fill="#FFFFFF" stroke="#DDE6F0" stroke-width="1"/>
  <text x="730" y="280" font-family="Arial" font-size="16" fill="#555555">Resource Allocation</text>
  
  <!-- Simplified pie chart -->
  <circle cx="920" cy="370" r="80" fill="#FFFFFF" stroke="#DDE6F0" stroke-width="1"/>
  <path d="M920,370 L920,290 A80,80 0 0,1 989,410 z" fill="#0055FF" opacity="0.8"/>
  <path d="M920,370 L989,410 A80,80 0 0,1 850,410 z" fill="#00CCFF" opacity="0.8"/>
  <path d="M920,370 L850,410 A80,80 0 0,1 920,290 z" fill="#FF5500" opacity="0.8"/>
  
  <!-- Bottom status boxes -->
  <rect x="270" y="510" width="860" height="100" rx="8" fill="#FFFFFF" stroke="#DDE6F0" stroke-width="1"/>
  <text x="290" y="540" font-family="Arial" font-size="16" fill="#555555">Project Health Status</text>
  
  <!-- Status indicators -->
  <circle cx="360" cy="575" r="12" fill="#4CAF50"/>
  <text x="390" y="580" font-family="Arial" font-size="14" fill="#333333">On Track (12)</text>
  
  <circle cx="520" cy="575" r="12" fill="#FF9800"/>
  <text x="550" y="580" font-family="Arial" font-size="14" fill="#333333">At Risk (4)</text>
  
  <circle cx="660" cy="575" r="12" fill="#F44336"/>
  <text x="690" y="580" font-family="Arial" font-size="14" fill="#333333">Delayed (2)</text>
  
  <circle cx="800" cy="575" r="12" fill="#9E9E9E"/>
  <text x="830" y="580" font-family="Arial" font-size="14" fill="#333333">Not Started (8)</text>
</svg>
